HIERARCHY
ROOT Hips
{
	OFFSET 0.000000 0.000000 0.000000
	CHANNELS 6 Xposition Yposition Zposition Yrotation Xrotation Zrotation
	JOINT Spine
	{
		OFFSET 0.000000 0.000000 -0.744707
		CHANNELS 6 Xposition Yposition Zposition Yrotation Xrotation Zrotation
		JOINT Spine1
		{
			OFFSET 0.000000 0.000000 -2.032240
			CHANNELS 6 Xposition Yposition Zposition Yrotation Xrotation Zrotation
			JOINT Neck
			{
				OFFSET 0.000000 0.000000 -2.213880
				CHANNELS 6 Xposition Yposition Zposition Yrotation Xrotation Zrotation
				JOINT Head
				{
					OFFSET 0.000000 0.181636 -1.407680
					CHANNELS 6 Xposition Yposition Zposition Yrotation Xrotation Zrotation
					End Site
					{
						OFFSET 0.000000 0.000000 -1.816356
					}
				}
			}
			JOINT LeftShoulder
			{
				OFFSET 0.365767 -0.048012 -1.787590
				CHANNELS 6 Xposition Yposition Zposition Yrotation Xrotation Zrotation
				JOINT LeftArm
				{
					OFFSET 1.305160 0.000000 0.000000
					CHANNELS 6 Xposition Yposition Zposition Yrotation Xrotation Zrotation
					JOINT LeftForeArm
					{
						OFFSET 2.559210 0.000000 0.000000
						CHANNELS 6 Xposition Yposition Zposition Yrotation Xrotation Zrotation
						JOINT LeftHand
						{
							OFFSET 2.378450 0.000000 0.000000
							CHANNELS 6 Xposition Yposition Zposition Yrotation Xrotation Zrotation
							End Site
							{
								OFFSET 1.362267 0.000000 0.000000
							}
						}
					}
				}
			}
			JOINT RightShoulder
			{
				OFFSET -0.360721 -0.048012 -1.787590
				CHANNELS 6 Xposition Yposition Zposition Yrotation Xrotation Zrotation
				JOINT RightArm
				{
					OFFSET -1.305160 0.000000 0.000000
					CHANNELS 6 Xposition Yposition Zposition Yrotation Xrotation Zrotation
					JOINT RightForeArm
					{
						OFFSET -2.559210 0.000000 0.000000
						CHANNELS 6 Xposition Yposition Zposition Yrotation Xrotation Zrotation
						JOINT RightHand
						{
							OFFSET -2.378450 0.000000 0.000000
							CHANNELS 6 Xposition Yposition Zposition Yrotation Xrotation Zrotation
							End Site
							{
								OFFSET -1.362267 0.000000 0.000000
							}
						}
					}
				}
			}
		}
	}
	JOINT LeftUpLeg
	{
		OFFSET 0.908180 0.000000 0.000000
		CHANNELS 6 Xposition Yposition Zposition Yrotation Xrotation Zrotation
		JOINT LeftLeg
		{
			OFFSET 0.000000 -0.000003 3.819490
			CHANNELS 6 Xposition Yposition Zposition Yrotation Xrotation Zrotation
			JOINT LeftFoot
			{
				OFFSET 0.000000 -0.000003 4.004300
				CHANNELS 6 Xposition Yposition Zposition Yrotation Xrotation Zrotation
				JOINT LeftToeBase
				{
					OFFSET 0.000000 1.362270 0.590317
					CHANNELS 6 Xposition Yposition Zposition Yrotation Xrotation Zrotation
					End Site
					{
						OFFSET 0.000000 0.363271 0.000000
					}
				}
			}
		}
	}
	JOINT RightUpLeg
	{
		OFFSET -0.908180 0.000000 0.000000
		CHANNELS 6 Xposition Yposition Zposition Yrotation Xrotation Zrotation
		JOINT RightLeg
		{
			OFFSET 0.000000 -0.000003 3.819490
			CHANNELS 6 Xposition Yposition Zposition Yrotation Xrotation Zrotation
			JOINT RightFoot
			{
				OFFSET 0.000000 -0.000003 4.004300
				CHANNELS 6 Xposition Yposition Zposition Yrotation Xrotation Zrotation
				JOINT RightToeBase
				{
					OFFSET 0.000000 1.362270 0.590317
					CHANNELS 6 Xposition Yposition Zposition Yrotation Xrotation Zrotation
					End Site
					{
						OFFSET 0.000000 0.363271 0.000000
					}
				}
			}
		}
	}
}
MOTION
Frames: 4
Frame Time: 0.016667
-1.660254 1.982770 -7.952991 -0.330562 7.409364 2.510292 -0.000000 -0.000000 -0.744707 -1.600120 -22.163479 -10.160191 0.000000 -0.000000 -2.032238 9.853111 21.522003 -1.616242 0.000000 0.000000 -2.213882 7.031616 0.190232 2.285303 -0.000000 0.181636 -1.407679 -1.267125 7.398213 1.167103 0.365767 -0.048012 -1.787592 13.445460 -2.751485 -1.386113 1.305159 -0.000000 0.000002 -47.676431 11.846887 6.551509 2.559211 -0.000000 0.000001 -0.793532 -32.166776 76.148174 2.378450 0.000001 0.000001 23.382652 -27.392349 -28.936725 -0.360721 -0.048012 -1.787590 -7.337898 -5.471758 -7.225674 -1.305160 -0.000000 0.000001 43.496427 14.638955 -36.814791 -2.559211 0.000001 0.000001 -48.004841 -51.580301 -76.483229 -2.378449 -0.000000 0.000001 -58.008339 -9.452694 15.920727 0.908180 -0.000000 0.000001 1.233294 -9.013701 -2.064594 -0.000000 -0.000002 3.819489 2.396588 10.685481 -4.499896 -0.000001 -0.000001 4.004299 3.332681 -3.767025 -22.202237 0.000000 1.362270 0.590316 0.000001 0.000004 0.000006 -0.908180 0.000000 0.000002 -17.949338 -19.974168 -0.728227 -0.000001 -0.000001 3.819487 5.637927 21.976383 -13.372126 0.000001 -0.000000 4.004299 3.175316 -1.418688 47.859853 -0.000001 1.362269 0.590318 -0.000003 0.000005 0.000008 
-1.642591 1.976746 -7.954000 -0.332867 7.390118 2.662653 0.000000 -0.000000 -0.744706 -1.511888 -22.093609 -10.038559 0.000000 0.000001 -2.032237 9.657118 21.429666 -1.615013 0.000000 0.000001 -2.213881 7.219983 0.432864 2.071805 -0.000000 0.181636 -1.407681 -1.529979 7.211752 0.857458 0.365767 -0.048012 -1.787592 13.369562 -3.040553 -1.107815 1.305161 0.000000 0.000003 -47.439618 9.759754 7.394814 2.559211 -0.000000 0.000002 -0.113804 -32.948484 75.644762 2.378450 0.000001 0.000001 26.597665 -26.672695 -30.233115 -0.360721 -0.048012 -1.787591 -7.295801 -5.284995 -7.134726 -1.305161 -0.000000 0.000000 44.059160 14.767364 -36.740636 -2.559210 -0.000001 0.000000 -47.747841 -51.191189 -76.822102 -2.378449 -0.000002 0.000000 -58.031220 -9.008058 15.606207 0.908180 -0.000000 0.000001 1.141300 -9.096839 -2.090523 -0.000000 -0.000001 3.819490 2.358483 10.833143 -4.822978 -0.000001 -0.000002 4.004299 3.377261 -3.813267 -22.002085 0.000000 1.362270 0.590316 -0.000001 0.000001 -0.000001 -0.908180 -0.000000 0.000002 -17.780934 -20.210306 -1.120586 -0.000000 -0.000002 3.819490 5.952104 22.397602 -12.758477 0.000001 -0.000001 4.004299 2.563891 -2.066704 47.939445 -0.000001 1.362270 0.590316 -0.000000 0.000004 0.000001 
-1.626782 1.970096 -7.955175 -0.351692 7.338816 2.789044 0.000000 0.000000 -0.744704 -1.452540 -21.982682 -9.859517 0.000000 -0.000000 -2.032238 9.501954 21.345685 -1.587561 0.000000 0.000000 -2.213880 7.351029 0.685731 1.825312 0.000000 0.181636 -1.407677 -1.753489 6.995451 0.528973 0.365767 -0.048012 -1.787588 13.315889 -3.429537 -0.817840 1.305160 0.000000 0.000000 -47.192465 8.029787 8.073348 2.559211 0.000000 -0.000001 0.607376 -33.896713 75.144580 2.378449 0.000002 0.000000 29.841961 -26.016829 -31.539901 -0.360721 -0.048012 -1.787592 -7.277781 -5.155186 -7.092167 -1.305160 -0.000000 -0.000001 44.459125 15.167656 -36.616286 -2.559211 0.000001 -0.000001 -47.937645 -50.910676 -76.679365 -2.378451 0.000001 0.000003 -58.174360 -8.578693 15.386348 0.908180 0.000000 0.000002 1.176225 -9.180296 -1.978730 -0.000000 -0.000003 3.819491 2.117485 11.053611 -4.833134 -0.000001 -0.000001 4.004301 3.534773 -3.870374 -22.223948 0.000000 1.362270 0.590316 0.000000 0.000001 0.000004 -0.908180 -0.000000 0.000001 -17.564368 -20.382982 -1.564613 -0.000000 -0.000002 3.819488 6.249530 22.762174 -12.031903 0.000002 -0.000001 4.004301 2.215944 -2.668858 47.886163 -0.000000 1.362270 0.590316 0.000001 0.000005 -0.000003 
-1.611688 1.964398 -7.956424 -0.374517 7.296438 2.899922 -0.000000 0.000000 -0.744706 -1.383745 -21.889952 -9.648817 0.000000 0.000001 -2.032242 9.331676 21.258619 -1.551903 -0.000000 0.000002 -2.213879 7.513684 0.959695 1.565520 0.000000 0.181636 -1.407683 -2.061159 6.783122 0.165106 0.365767 -0.048012 -1.787589 13.256771 -3.716227 -0.578066 1.305160 -0.000000 0.000001 -46.800962 6.240724 8.826818 2.559211 -0.000000 -0.000001 1.137635 -34.611444 74.648961 2.378449 -0.000000 -0.000001 33.102105 -25.166594 -32.796345 -0.360721 -0.048012 -1.787591 -7.261283 -4.938677 -7.022249 -1.305160 -0.000000 0.000001 44.816785 15.517152 -36.573091 -2.559211 0.000000 0.000000 -47.886374 -50.564741 -76.694500 -2.378448 0.000000 0.000001 -58.360483 -8.232226 15.059473 0.908180 -0.000000 0.000002 1.196105 -9.274607 -1.997727 -0.000000 -0.000003 3.819490 1.937437 11.269766 -4.820816 -0.000001 -0.000002 4.004300 3.640382 -3.924323 -22.347798 0.000000 1.362270 0.590316 0.000001 0.000006 0.000003 -0.908180 0.000000 0.000000 -17.342567 -20.507800 -1.999965 -0.000001 -0.000002 3.819488 6.446161 23.066346 -11.770450 0.000001 -0.000001 4.004302 1.837984 -3.072471 47.869319 -0.000000 1.362271 0.590316 -0.000000 0.000004 0.000001 
